<?xml version="1.0" standalone="no"?>
<!DOCTYPE svg PUBLIC "-//W3C//DTD SVG 20010904//EN"
 "http://www.w3.org/TR/2001/REC-SVG-20010904/DTD/svg10.dtd">
<svg version="1.0" xmlns="http://www.w3.org/2000/svg"
 width="945.000000pt" height="945.000000pt" viewBox="0 0 945.000000 945.000000"
 preserveAspectRatio="xMidYMid meet">

<g transform="translate(0.000000,945.000000) scale(0.100000,-0.100000)"
fill="#000000" stroke="none">
<path d="M0 4725 l0 -4725 4725 0 4725 0 0 4725 0 4725 -4725 0 -4725 0 0
-4725z m5075 4139 c33 -8 104 -35 158 -60 121 -55 245 -86 359 -88 l87 -1 -46
-46 c-25 -26 -72 -62 -104 -80 -32 -19 -59 -40 -59 -47 0 -21 117 -70 186 -77
35 -4 64 -11 64 -14 0 -18 -52 -53 -106 -72 -81 -29 -214 -21 -374 21 -206 55
-294 72 -375 73 -121 3 -115 10 -115 -143 l0 -130 163 0 c444 0 906 -74 1237
-197 619 -231 962 -665 987 -1248 5 -105 2 -142 -12 -195 -31 -115 -34 -103
38 -134 152 -64 234 -193 193 -301 -20 -51 -87 -117 -139 -136 -43 -15 -44
-21 -16 -91 68 -172 10 -364 -160 -534 -91 -91 -293 -233 -280 -197 2 6 47 39
99 74 136 91 239 199 292 305 39 79 42 94 46 179 4 77 0 105 -18 159 -12 36
-25 68 -29 70 -4 3 -76 6 -159 7 -146 3 -152 2 -176 -20 -14 -13 -34 -51 -45
-83 -42 -125 -97 -184 -197 -214 -60 -18 -88 -18 -153 2 -41 12 -68 30 -124
85 -103 100 -130 102 -253 16 -59 -40 -82 -51 -126 -55 -39 -3 -103 -28 -250
-97 -385 -181 -641 -331 -769 -451 -78 -73 -126 -98 -171 -89 -16 4 -62 36
-101 72 -207 188 -621 394 -1155 577 -90 31 -176 56 -190 56 -35 0 -67 -22
-156 -107 -186 -180 -307 -163 -468 66 -96 136 -141 179 -218 201 -36 10 -86
21 -112 25 l-46 6 -22 -58 c-27 -73 -30 -193 -6 -275 34 -120 161 -268 317
-373 89 -60 239 -139 350 -185 47 -19 86 -39 86 -45 2 -14 -16 -9 -110 31
-358 153 -602 362 -667 572 -26 83 -26 189 0 262 11 30 19 60 20 65 0 6 -21
18 -46 29 -125 51 -166 143 -105 237 36 57 143 158 204 194 54 31 54 27 16
130 -20 55 -21 72 -16 220 7 170 19 244 67 386 131 391 448 687 924 864 321
119 702 182 1163 192 l263 6 2 329 3 330 54 3 c29 2 56 6 59 10 12 11 181 4
237 -11z m-2621 -3121 c72 -91 230 -227 388 -333 91 -62 110 -78 85 -74 -61
11 -132 37 -207 75 -42 22 -79 39 -83 39 -4 0 -7 -10 -7 -21 0 -26 98 -124
192 -193 37 -27 66 -52 63 -54 -7 -7 -172 85 -252 140 -204 141 -314 336 -273
485 12 40 15 44 24 28 6 -10 37 -51 70 -92z m4643 5 c-3 -51 -12 -111 -19
-133 -22 -71 -207 -235 -351 -311 -38 -20 -70 -34 -73 -32 -2 3 26 25 64 51
91 62 149 113 155 136 4 16 1 18 -22 11 -14 -4 -49 -19 -76 -32 -75 -38 -183
-75 -245 -83 -30 -4 -52 -5 -49 -1 3 3 55 30 116 60 137 67 236 129 257 160
15 23 15 24 -17 16 -18 -4 -59 -19 -92 -33 -33 -14 -76 -28 -95 -31 -27 -5
-18 2 40 32 147 76 290 174 359 246 19 20 39 36 44 36 6 0 8 -36 4 -92z
m-1722 -862 c28 -17 58 -46 76 -74 16 -26 33 -46 37 -45 4 1 12 30 17 65 l10
63 91 3 92 3 7 -296 c4 -163 5 -298 2 -301 -2 -3 -53 -6 -113 -7 l-109 -2 -7
58 c-15 115 -86 205 -153 193 -43 -8 -100 -75 -124 -149 -67 -197 -39 -494 55
-591 34 -35 51 -41 103 -36 62 5 114 80 109 153 -3 42 -3 42 -40 39 l-38 -4 0
111 c0 99 2 111 18 112 9 0 100 6 202 13 128 8 187 9 192 1 4 -5 8 -54 8 -107
0 -98 0 -98 -25 -98 l-25 0 0 -255 c0 -197 -3 -255 -12 -255 -7 0 -60 -7 -118
-15 -58 -8 -108 -15 -112 -15 -3 0 -14 24 -24 53 -24 73 -23 73 -54 24 -52
-82 -134 -124 -222 -114 -214 26 -358 317 -358 726 0 360 121 674 292 760 61
30 158 24 223 -13z m-2655 3 c70 -16 126 -54 157 -107 26 -44 28 -54 28 -167
0 -140 -16 -186 -77 -219 l-36 -20 53 -50 c72 -69 97 -138 97 -261 0 -257
-102 -322 -353 -227 -58 22 -181 72 -272 112 l-166 72 -3 79 -3 80 38 -6 37
-7 0 286 c0 275 -1 286 -19 286 -46 0 -51 8 -51 90 l0 78 263 -5 c144 -2 282
-9 307 -14z m676 -20 c-3 -17 -6 -71 -6 -120 l0 -89 -35 0 -35 0 -2 -187 c-7
-476 9 -561 108 -593 26 -9 40 -8 61 2 63 30 79 119 89 506 l7 262 -37 0 -36
0 0 58 c0 31 3 87 7 125 l6 67 185 0 185 0 -6 -67 c-4 -38 -7 -96 -7 -130 l0
-63 -35 0 -35 0 0 -232 c0 -480 -35 -682 -140 -802 -43 -49 -103 -69 -188 -64
-138 7 -277 111 -347 260 -66 140 -68 157 -73 536 l-3 342 -36 0 c-36 0 -36 0
-29 38 3 20 6 70 6 110 l0 72 201 0 202 0 -7 -31z m1104 3 c92 -36 155 -117
179 -230 16 -77 14 -249 -4 -310 -19 -65 -69 -129 -118 -155 l-38 -19 34 -23
c71 -49 113 -147 122 -290 8 -115 12 -135 30 -135 21 0 35 33 35 84 l0 46 41
0 42 0 -5 -132 c-6 -150 -27 -224 -76 -271 -62 -59 -165 -55 -241 10 -79 67
-100 133 -110 348 -6 114 -12 169 -24 191 -16 31 -53 54 -87 54 -19 0 -20 -8
-20 -165 l0 -165 35 0 35 0 0 -136 0 -137 -67 7 c-38 3 -130 14 -205 23 l-138
16 0 134 0 134 35 -7 c25 -4 36 -2 39 7 3 8 7 208 9 446 l4 432 -31 3 -31 3
-3 134 -3 133 253 -4 c229 -4 258 -7 308 -26z m2110 -166 l0 -193 -77 -7 c-42
-3 -89 -6 -105 -6 l-28 0 0 74 c0 41 -5 78 -10 81 -6 3 -53 3 -105 -1 l-95 -7
0 -111 c0 -137 5 -159 34 -153 11 3 65 9 119 12 l97 7 0 -119 0 -120 -97 -12
c-54 -7 -109 -15 -122 -18 l-24 -6 5 -149 c3 -82 8 -151 11 -154 3 -3 48 3
101 12 l96 17 0 88 0 87 103 19 102 18 6 -55 c4 -30 7 -119 8 -196 l1 -142
-116 -31 c-181 -50 -595 -141 -641 -141 -2 0 -3 58 -3 130 l0 130 28 6 c15 3
32 7 38 9 12 3 10 384 -2 713 l-6 152 -39 0 -39 0 0 130 0 130 380 0 380 0 0
-194z m671 166 c90 -36 135 -97 145 -200 11 -102 -24 -174 -116 -241 -36 -26
-40 -32 -24 -36 85 -27 118 -69 129 -163 10 -91 50 -101 62 -15 5 36 9 42 40
51 l35 11 -4 -82 c-5 -96 -35 -165 -94 -216 -75 -66 -191 -93 -247 -56 -34 22
-58 85 -63 170 -10 149 -19 165 -90 165 l-45 0 3 -122 c3 -132 3 -131 56 -114
22 7 22 7 22 -93 l0 -101 -32 -13 c-62 -26 -348 -120 -352 -116 -2 2 -7 52
-10 111 l-7 107 35 7 36 6 0 102 c0 57 -3 225 -7 374 l-6 272 -32 0 -32 0 -6
68 c-4 37 -7 86 -7 110 l0 43 278 -3 c259 -3 281 -5 333 -26z m-6316 -677
c428 -143 983 -287 1348 -349 l37 -7 0 -194 0 -194 38 -10 c20 -5 119 -26 220
-46 1569 -306 3194 -294 4770 36 l152 32 0 193 c0 175 2 193 18 198 9 2 87 19
172 36 349 71 892 221 1232 340 78 27 143 48 145 46 2 -2 -75 -156 -172 -343
-96 -187 -175 -349 -175 -359 0 -10 79 -118 174 -239 96 -121 172 -223 168
-227 -20 -20 -671 -223 -892 -278 -47 -12 -102 -26 -122 -31 l-38 -10 -2 -162
-3 -162 -270 -68 c-1694 -426 -3498 -466 -5215 -116 -213 44 -569 127 -695
162 l-80 23 -3 162 -2 161 -38 10 c-20 5 -75 19 -122 31 -160 40 -435 122
-640 190 -282 94 -263 85 -248 112 7 12 18 27 25 33 34 29 313 393 313 408 0
10 -79 171 -175 357 -96 186 -175 342 -175 345 0 4 8 4 18 0 9 -4 116 -40 237
-80z m1910 -2100 c175 -70 385 -127 591 -159 49 -8 79 -14 67 -15 -37 -2 -241
29 -366 55 -127 27 -348 95 -466 144 -94 38 -101 38 -101 -2 0 -55 10 -61 175
-123 191 -72 417 -129 640 -163 33 -5 49 -10 35 -11 -40 -2 -277 35 -401 63
-63 14 -183 47 -267 72 -84 26 -155 44 -158 41 -3 -3 0 -24 7 -47 15 -48 24
-54 166 -96 188 -56 325 -86 573 -127 14 -3 -4 -3 -40 -1 -103 7 -302 42 -470
85 -85 21 -161 39 -167 39 -21 0 -15 -24 16 -67 25 -35 37 -42 107 -60 94 -26
294 -68 419 -88 87 -14 88 -15 20 -9 -38 3 -135 16 -215 30 -228 40 -221 39
-214 20 3 -9 56 -41 118 -71 103 -51 121 -56 246 -74 96 -14 121 -19 85 -20
l-50 -2 40 -18 c48 -23 237 -62 431 -90 539 -78 1432 -91 2059 -31 670 65
1110 213 1247 421 53 80 87 187 101 313 11 95 15 111 31 114 18 4 19 -2 13
-84 -12 -166 -74 -326 -161 -417 -210 -219 -686 -350 -1486 -409 -231 -17
-1055 -17 -1295 1 -709 50 -1163 161 -1413 345 -74 55 -140 140 -175 228 -53
133 -76 332 -39 340 9 2 61 -18 114 -44 54 -27 136 -64 183 -83z m4045 -102
c-42 -130 -141 -253 -243 -303 -126 -61 -453 -118 -732 -127 -165 -5 -334 1
-323 12 2 2 42 15 89 29 121 35 303 70 519 101 324 46 321 45 318 63 -4 23
-70 29 -428 37 -162 4 -329 10 -370 14 -72 6 -64 7 175 34 566 64 883 120 982
176 25 13 27 8 13 -36z m-3282 -80 c-10 -2 -26 -2 -35 0 -10 3 -2 5 17 5 19 0
27 -2 18 -5z m-90 -100 c-10 -2 -26 -2 -35 0 -10 3 -2 5 17 5 19 0 27 -2 18
-5z m145 -10 c-7 -2 -19 -2 -25 0 -7 3 -2 5 12 5 14 0 19 -2 13 -5z m-225 -90
c-10 -2 -28 -2 -40 0 -13 2 -5 4 17 4 22 1 32 -1 23 -4z m125 -10 c-7 -2 -21
-2 -30 0 -10 3 -4 5 12 5 17 0 24 -2 18 -5z m-205 -90 c-10 -2 -28 -2 -40 0
-13 2 -5 4 17 4 22 1 32 -1 23 -4z m100 -10 c-10 -2 -26 -2 -35 0 -10 3 -2 5
17 5 19 0 27 -2 18 -5z m-80 -100 c-10 -2 -26 -2 -35 0 -10 3 -2 5 17 5 19 0
27 -2 18 -5z m135 -10 c-7 -2 -19 -2 -25 0 -7 3 -2 5 12 5 14 0 19 -2 13 -5z"/>
<path d="M4812 8840 c-19 -4 -39 -13 -45 -19 -8 -8 26 -11 129 -13 l139 -1
-135 -8 c-74 -3 -138 -7 -142 -8 -5 0 -8 -13 -8 -27 0 -19 4 -24 18 -20 41 11
151 15 202 7 55 -8 54 -9 -32 -10 -120 -1 -188 -17 -188 -42 0 -17 5 -19 33
-15 82 13 126 15 182 8 59 -8 57 -8 -50 -14 -120 -6 -165 -19 -165 -44 0 -13
8 -15 48 -10 60 7 103 9 172 6 45 -2 37 -4 -40 -10 -125 -10 -180 -25 -180
-49 0 -17 5 -18 38 -10 42 10 216 10 250 1 13 -4 -28 -7 -90 -8 -109 -1 -187
-17 -195 -40 -2 -5 40 -10 94 -10 103 -2 142 -9 368 -68 163 -43 311 -56 384
-34 52 16 66 38 24 38 -35 0 -156 59 -202 98 l-35 30 42 7 c39 6 151 70 166
93 4 7 -12 13 -41 17 -108 13 -226 46 -322 90 -57 25 -128 52 -159 60 -59 16
-204 18 -260 5z m255 -46 c-3 -3 -12 -4 -19 -1 -8 3 -5 6 6 6 11 1 17 -2 13
-5z m-4 -61 c-7 -2 -19 -2 -25 0 -7 3 -2 5 12 5 14 0 19 -2 13 -5z m0 -60 c-7
-2 -19 -2 -25 0 -7 3 -2 5 12 5 14 0 19 -2 13 -5z m-6 -59 c-3 -3 -12 -4 -19
-1 -8 3 -5 6 6 6 11 1 17 -2 13 -5z"/>
<path d="M4260 8163 c-615 -44 -1068 -178 -1400 -412 -87 -61 -230 -200 -289
-280 -163 -220 -247 -496 -239 -784 3 -126 5 -136 36 -199 39 -80 112 -150
180 -172 125 -42 734 -96 1317 -117 379 -13 1704 -6 1990 10 268 16 641 48
835 71 138 17 175 25 225 50 103 51 146 104 181 225 14 50 16 83 10 200 -11
248 -61 425 -175 617 -294 496 -963 771 -1933 795 l-248 6 0 -72 c0 -56 -3
-71 -15 -71 -12 0 -15 14 -15 70 l0 70 -207 -2 c-115 -1 -228 -3 -253 -5z
m335 -322 c-26 -25 -26 -26 -41 -7 -25 34 -14 75 40 151 l21 30 3 -74 c3 -69
1 -77 -23 -100z m956 12 c49 -47 59 -62 59 -90 0 -65 -64 -34 -95 47 -23 61
-35 100 -29 100 3 0 32 -25 65 -57z m-1329 25 c16 -24 4 -53 -22 -56 -20 -2
-34 7 -60 39 l-34 42 54 -6 c29 -4 57 -12 62 -19z m825 -54 c3 -8 -1 -21 -8
-30 -15 -18 -73 -13 -116 10 -25 13 -25 13 28 33 56 20 84 16 96 -13z m-1403
0 c10 -26 -10 -48 -58 -66 -52 -19 -55 -14 -23 42 17 31 28 40 48 40 15 0 30
-7 33 -16z m2424 -66 c14 -38 17 -58 10 -71 -14 -26 -37 -32 -55 -14 -14 14
-14 23 -3 76 7 34 16 61 21 61 4 0 16 -24 27 -52z m-2030 -71 l23 -13 -22 -28
c-21 -26 -26 -28 -74 -22 -28 3 -67 11 -85 18 l-34 11 63 18 c35 10 66 21 69
24 9 9 36 5 60 -8z m-1239 -124 c-28 -38 -66 -94 -86 -126 l-35 -57 64 -66
c117 -122 222 -190 358 -230 94 -29 61 -31 -40 -3 -121 33 -284 131 -369 223
-29 31 -37 32 -51 7 -9 -17 0 -30 64 -92 41 -39 96 -87 123 -107 64 -46 197
-109 269 -126 33 -8 50 -15 40 -15 -37 -2 -151 31 -222 64 -88 40 -182 103
-250 167 l-51 48 -12 -28 c-13 -26 -11 -29 55 -90 123 -114 240 -183 386 -227
59 -18 70 -23 38 -19 -146 21 -319 106 -457 225 l-48 42 -9 -30 c-8 -28 -5
-34 34 -69 123 -112 291 -207 430 -244 62 -17 66 -19 26 -14 -120 14 -299 95
-428 192 -39 29 -73 51 -75 48 -3 -3 -2 -22 1 -43 6 -34 16 -45 89 -97 101
-72 234 -137 347 -170 94 -28 90 -34 -8 -11 -87 21 -205 68 -282 113 -36 21
-74 41 -83 45 -29 11 -3 -26 49 -71 96 -82 268 -155 489 -208 l100 -24 -120 5
c-127 6 -355 36 -468 61 -37 9 -72 14 -78 12 -6 -2 0 -18 13 -37 57 -84 269
-157 613 -212 l120 -19 -158 5 c-246 7 -650 74 -689 113 -33 32 -41 129 -28
332 6 102 18 214 26 250 21 88 100 249 166 337 51 69 181 213 192 213 3 0 -17
-30 -45 -67z m3903 -60 c117 -144 193 -278 223 -393 24 -88 25 -383 2 -486
-19 -86 -49 -148 -81 -169 -26 -17 -26 -17 -331 -40 -328 -24 -442 -28 -448
-18 -4 6 36 22 93 37 55 15 114 33 132 41 l33 14 -45 1 c-38 2 -28 5 63 25
125 28 199 59 245 104 57 57 43 63 -63 27 -81 -28 -261 -66 -302 -65 -15 0 11
9 58 19 154 32 315 86 351 117 16 14 34 70 26 79 -3 2 -44 -12 -92 -31 -97
-40 -254 -80 -343 -89 -52 -5 -49 -4 27 13 115 25 254 73 342 117 40 20 75 38
77 40 5 5 19 84 14 84 -2 0 -40 -18 -84 -41 -97 -48 -228 -92 -339 -113 -116
-22 -153 -18 -45 4 50 11 124 31 165 46 87 30 252 113 292 146 27 23 50 88 31
88 -5 0 -46 -21 -89 -48 -136 -81 -320 -145 -456 -156 l-63 -6 69 15 c196 41
359 121 540 265 l56 45 -5 58 c-8 79 -39 176 -86 270 -21 43 -34 75 -30 73 5
-3 33 -36 63 -73z m-2112 48 c26 -50 -6 -89 -43 -52 -19 19 -19 20 -1 45 23
31 30 32 44 7z m-1045 -64 c30 -17 41 -30 43 -51 8 -67 -46 -54 -89 22 -25 45
-27 52 -12 52 10 0 36 -10 58 -23z m2983 -5 c17 -23 15 -40 -8 -52 -29 -15
-50 -6 -96 41 l-39 41 65 -7 c41 -4 70 -13 78 -23z m-1265 -216 c-11 -38 -30
-39 -56 -5 -18 25 -19 32 -7 115 l13 88 29 -84 c23 -66 28 -90 21 -114z m352
154 c14 -16 15 -22 5 -34 -21 -26 -46 -27 -96 -6 -78 34 -85 44 -33 51 84 11
105 10 124 -11z m309 -159 c-7 -73 -28 -109 -58 -98 -34 13 -29 53 14 117 23
34 44 59 47 57 2 -3 1 -37 -3 -76z m-2845 24 c26 -39 29 -49 19 -70 -12 -28
-20 -30 -49 -15 -13 8 -19 21 -19 48 0 36 9 82 15 82 2 0 17 -20 34 -45z
m1115 -37 c-8 -62 -18 -78 -50 -78 -17 0 -25 7 -30 26 -5 21 1 33 32 65 21 21
42 39 46 39 5 0 6 -24 2 -52z m615 -18 c55 -27 71 -44 71 -75 0 -21 -38 -28
-63 -12 -21 14 -85 117 -72 117 3 0 32 -13 64 -30z m1646 -125 c-17 -52 -44
-85 -71 -85 -15 0 -27 46 -17 65 10 17 96 85 101 80 2 -2 -4 -29 -13 -60z
m-835 -76 c33 -20 33 -22 15 -36 -44 -32 -103 -26 -210 20 l-50 22 80 6 c44 3
91 6 105 7 14 1 41 -8 60 -19z m481 -30 c59 -18 64 -78 7 -79 -16 0 -49 38
-61 73 -7 20 2 21 54 6z m-2370 -71 c27 -25 38 -61 21 -71 -4 -3 -20 -3 -35 0
-21 4 -35 20 -62 68 -19 34 -35 65 -35 69 0 11 79 -36 111 -66z m1059 -10 c0
-13 -6 -30 -13 -38 -13 -17 -96 -62 -136 -75 -23 -7 -22 -5 10 40 56 78 75 95
109 95 25 0 30 -4 30 -22z m-513 -9 c8 -8 8 -18 1 -35 -10 -20 -18 -24 -57
-24 -25 0 -56 3 -69 6 -21 6 -19 9 25 35 52 30 82 36 100 18z m-1084 -36 c-7
-2 -19 -2 -25 0 -7 3 -2 5 12 5 14 0 19 -2 13 -5z m2850 -30 c-7 -2 -21 -2
-30 0 -10 3 -4 5 12 5 17 0 24 -2 18 -5z m-2880 -60 c-7 -2 -21 -2 -30 0 -10
3 -4 5 12 5 17 0 24 -2 18 -5z m2925 -30 c-10 -2 -26 -2 -35 0 -10 3 -2 5 17
5 19 0 27 -2 18 -5z m-456 -35 c63 -39 68 -45 68 -80 0 -23 -4 -28 -24 -28
-28 0 -50 19 -71 61 -20 37 -36 79 -30 79 2 0 28 -15 57 -32z m-2499 -25 c-7
-2 -21 -2 -30 0 -10 3 -4 5 12 5 17 0 24 -2 18 -5z m3005 -30 c-10 -2 -28 -2
-40 0 -13 2 -5 4 17 4 22 1 32 -1 23 -4z m30 -90 c-10 -2 -26 -2 -35 0 -10 3
-2 5 17 5 19 0 27 -2 18 -5z m40 -90 c-10 -2 -26 -2 -35 0 -10 3 -2 5 17 5 19
0 27 -2 18 -5z m-155 -10 c-7 -2 -19 -2 -25 0 -7 3 -2 5 12 5 14 0 19 -2 13
-5z m-595 -90 c260 -9 246 -17 -73 -43 -218 -18 -671 -23 -950 -11 -258 11
-605 37 -614 47 -2 2 22 5 55 5 32 1 140 5 239 9 192 9 1040 4 1343 -7z"/>
<path d="M7018 6364 c-57 -53 -78 -66 -135 -83 -129 -39 -710 -91 -1236 -112
-340 -13 -1882 -6 -2112 10 -82 6 -190 13 -240 16 -119 8 -379 32 -535 51
-217 25 -270 43 -347 120 l-45 45 -46 -27 c-106 -61 -215 -179 -225 -244 -6
-33 14 -71 55 -105 43 -36 64 -44 191 -65 166 -28 213 -60 318 -212 96 -141
168 -198 247 -198 65 0 100 20 201 114 123 114 149 127 286 137 60 4 123 12
139 19 37 14 108 66 165 120 56 53 122 83 183 84 62 0 108 -36 163 -127 50
-82 89 -124 123 -130 15 -3 57 1 93 8 115 24 151 2 251 -158 71 -112 142 -135
249 -79 63 33 106 86 173 213 74 139 104 154 230 115 113 -35 146 -34 193 7
21 17 44 40 52 50 32 44 93 77 140 77 70 0 115 -33 201 -146 120 -158 168
-173 289 -90 129 88 158 86 269 -18 89 -83 138 -103 223 -92 109 15 170 70
208 188 29 88 72 137 123 139 18 1 87 0 153 -1 176 -2 260 31 305 120 59 115
-25 243 -199 305 l-37 13 -66 -64z m-4637 -178 c17 -3 55 -6 83 -6 81 0 184
-27 237 -60 52 -34 95 -92 147 -202 18 -37 47 -79 64 -93 28 -24 38 -26 94
-23 53 2 61 1 51 -11 -18 -21 -88 -51 -122 -51 -16 0 -54 14 -83 31 -45 25
-64 46 -118 130 -76 118 -106 140 -238 179 -140 41 -186 74 -202 145 l-7 30
32 -31 c17 -17 45 -34 62 -38z m4654 -46 c-25 -48 -82 -69 -185 -70 -117 0
-129 -8 -161 -103 -29 -87 -55 -121 -114 -148 -88 -41 -176 -14 -246 74 -24
30 -54 61 -66 67 -24 14 -50 7 -168 -44 -108 -46 -179 -29 -247 60 -48 62 -48
74 0 36 88 -69 130 -70 230 -6 161 103 228 93 349 -49 25 -29 38 -37 65 -37
48 0 74 22 97 85 30 79 47 101 95 125 51 24 89 25 182 4 84 -20 136 -13 161
20 24 32 28 25 8 -14z m-1705 -124 c0 -33 -43 -82 -85 -96 -44 -15 -96 1 -125
37 -38 49 -29 61 58 68 42 4 82 8 87 10 6 2 22 4 38 4 22 1 27 -3 27 -23z
m-1131 -46 c9 0 66 9 126 21 95 19 116 20 155 9 66 -18 122 -79 149 -162 26
-79 54 -118 84 -118 18 0 19 -2 7 -10 -24 -15 -73 -11 -103 8 -15 11 -47 45
-71 78 -66 90 -62 89 -200 89 -103 0 -126 3 -155 20 -37 22 -66 57 -76 93 l-6
22 37 -25 c20 -14 44 -25 53 -25z"/>
<path d="M3835 5997 c-39 -9 -119 -63 -182 -122 -74 -70 -126 -92 -225 -94
-29 -1 -38 -5 -38 -18 0 -9 3 -14 6 -10 4 3 19 0 34 -8 15 -8 38 -16 51 -19
13 -2 42 -11 64 -19 22 -8 49 -18 60 -23 11 -4 25 -8 30 -9 14 -4 193 -74 230
-90 55 -25 110 -48 120 -50 15 -4 272 -130 340 -167 71 -39 179 -109 183 -120
2 -5 8 -8 13 -8 10 0 46 -30 116 -95 23 -22 49 -46 57 -52 41 -35 134 4 224
94 57 58 123 106 217 158 28 15 61 35 75 45 14 10 79 43 145 74 66 32 122 61
125 64 3 4 25 17 50 29 25 11 87 42 137 67 51 25 95 46 98 47 15 1 75 30 75
37 0 4 -19 28 -43 52 -24 25 -59 68 -77 95 -56 85 -110 125 -170 125 -42 0
-64 -13 -124 -75 -28 -29 -63 -60 -78 -70 -36 -23 -102 -21 -168 4 -68 26
-131 27 -158 4 -11 -10 -37 -49 -57 -88 -55 -108 -63 -119 -124 -182 -95 -97
-217 -111 -299 -34 -35 32 -102 130 -102 148 0 16 -74 72 -98 75 -15 2 -48 -2
-73 -8 -42 -10 -75 -11 -121 -1 -31 6 -74 44 -92 81 -9 19 -21 38 -26 41 -6 4
-8 10 -6 14 3 3 -17 30 -42 58 -51 55 -80 65 -147 50z m270 -377 c15 -6 25
-13 22 -16 -6 -6 -67 23 -67 32 0 3 4 3 9 0 4 -3 21 -10 36 -16z m65 -34 c0 5
4 4 8 -2 4 -6 35 -23 70 -39 34 -16 62 -32 62 -37 0 -4 -2 -8 -5 -8 -14 0
-165 85 -165 93 0 5 7 4 15 -3 8 -7 15 -9 15 -4z m1045 -36 c-4 -6 -25 -23
-47 -38 -78 -52 -87 -58 -119 -82 -18 -14 -38 -31 -45 -38 -51 -50 -201 -162
-218 -163 -56 -4 -85 4 -134 39 -28 20 -67 47 -85 59 -17 13 -38 28 -45 34 -7
5 -45 29 -85 51 -40 23 -74 44 -77 48 -3 4 -15 10 -27 14 -24 8 -30 21 -13 31
6 3 10 2 10 -3 0 -4 17 -15 37 -23 20 -8 57 -29 82 -46 25 -18 50 -33 54 -33
11 0 131 -82 135 -92 2 -5 9 -8 15 -8 6 0 21 -10 34 -22 36 -33 96 -27 158 18
47 33 124 91 152 114 7 6 15 10 18 10 3 0 11 5 18 10 53 45 73 60 80 60 4 0
13 5 20 10 14 13 81 59 85 60 2 0 0 -5 -3 -10z"/>
<path d="M2470 4601 l0 -108 31 -7 c63 -12 98 -7 113 17 36 57 26 150 -21 186
-18 15 -40 21 -74 21 l-49 0 0 -109z"/>
<path d="M2466 4253 c-3 -42 -6 -99 -6 -128 l0 -51 53 -17 c91 -29 125 -19
148 40 23 61 -6 169 -52 194 -20 10 -114 39 -130 39 -3 0 -9 -34 -13 -77z"/>
<path d="M4267 4623 c-4 -3 -7 -84 -7 -180 l0 -173 45 0 c95 0 139 54 139 170
0 123 -45 190 -128 190 -24 0 -46 -3 -49 -7z"/>
<path d="M7028 4703 c-28 -4 -28 -5 -28 -86 0 -45 3 -106 7 -135 l6 -53 41 7
c23 3 53 13 67 21 85 50 83 212 -2 242 -32 11 -41 11 -91 4z"/>
<path d="M762 4229 c2 -7 37 -25 78 -41 94 -37 643 -220 729 -244 36 -10 60
-19 55 -21 -14 -5 -497 135 -678 196 -82 28 -151 49 -153 47 -3 -2 7 -27 22
-55 16 -33 35 -56 53 -63 84 -33 392 -138 549 -188 101 -31 186 -59 189 -63
15 -14 -465 123 -655 188 -41 14 -76 25 -78 25 -2 0 10 -26 26 -59 l30 -58
198 -69 c109 -38 267 -89 351 -115 178 -54 212 -71 56 -28 -60 16 -120 32
-133 34 -13 3 -116 35 -230 70 -113 35 -208 61 -210 59 -3 -2 6 -26 19 -52 13
-26 23 -50 22 -53 -1 -5 564 -192 621 -205 15 -4 26 -8 23 -11 -6 -6 -264 64
-455 123 -79 25 -145 43 -148 40 -2 -2 7 -26 20 -53 l25 -48 248 -82 c137 -45
244 -82 238 -83 -12 0 -462 128 -474 135 -8 5 -70 -60 -70 -74 0 -8 327 -120
490 -167 52 -15 99 -31 104 -35 13 -11 -128 27 -399 108 l-219 65 -28 -33
c-16 -18 -28 -36 -28 -40 0 -9 249 -96 492 -172 108 -34 195 -63 193 -65 -7
-7 -462 124 -635 183 l-75 26 -27 -33 c-15 -18 -28 -36 -28 -39 0 -13 393
-150 685 -238 72 -22 125 -40 118 -41 -29 -1 -377 98 -656 187 l-178 57 -24
-30 c-13 -16 -23 -33 -22 -38 2 -4 43 -24 92 -42 119 -46 603 -208 685 -230
36 -9 69 -21 74 -25 21 -19 -348 86 -657 188 -205 67 -261 80 -231 55 15 -14
366 -135 449 -155 11 -3 76 -21 145 -42 69 -20 192 -54 273 -75 129 -34 148
-37 146 -22 -1 9 -1 185 0 391 l1 373 34 -6 c30 -6 64 8 270 110 130 65 234
119 232 121 -3 3 -87 22 -188 43 -235 49 -440 99 -648 156 -196 55 -447 131
-475 144 -19 10 -225 80 -233 80 -2 0 -2 -5 0 -11z m889 -447 c-7 -2 -18 1
-23 6 -8 8 -4 9 13 5 13 -4 18 -8 10 -11z"/>
<path d="M8805 4159 c-341 -115 -802 -238 -1157 -309 -32 -6 -58 -16 -58 -21
0 -10 379 -199 399 -199 6 0 11 -4 11 -10 0 -5 6 -10 14 -10 22 0 26 -57 26
-437 l0 -361 33 8 c341 90 597 164 844 247 128 43 169 63 129 63 -15 0 -182
-49 -289 -85 -86 -28 -457 -125 -478 -124 -8 0 9 7 36 15 28 8 111 33 185 55
238 70 512 163 517 176 7 18 -38 73 -56 69 -9 -2 -23 -6 -31 -9 -75 -30 -730
-202 -714 -188 5 4 63 22 129 40 136 36 561 168 588 183 17 8 16 12 -10 43
-15 18 -33 34 -40 34 -7 1 -81 -19 -165 -43 -84 -24 -218 -60 -298 -80 -180
-45 -183 -46 -176 -39 3 3 88 30 188 59 249 71 421 128 424 139 2 6 -9 25 -24
43 l-28 34 -104 -31 c-131 -37 -505 -131 -522 -130 -7 0 51 18 130 40 163 45
463 137 470 143 2 3 -8 21 -24 41 -18 24 -32 34 -43 30 -30 -12 -473 -124
-467 -118 3 3 88 30 188 59 277 80 278 80 311 142 16 30 27 55 25 58 -3 2 -52
-9 -109 -25 -57 -16 -160 -44 -229 -61 -69 -17 -133 -33 -144 -37 -11 -3 -16
-1 -12 5 3 5 23 13 43 17 21 3 65 15 98 25 414 126 381 112 411 171 13 27 24
53 24 58 0 5 -27 1 -60 -9 -33 -10 -60 -16 -60 -14 0 3 -8 0 -18 -5 -33 -18
-362 -100 -362 -90 0 5 6 9 14 9 13 0 380 111 471 143 32 11 46 24 68 66 16
29 27 55 24 57 -3 3 -49 -8 -104 -25 -199 -60 -612 -167 -599 -154 3 3 103 34
223 69 120 35 283 85 363 112 l145 49 28 48 c15 26 27 51 25 55 -2 4 -68 -12
-148 -37 -158 -48 -636 -173 -660 -172 -8 0 70 24 173 54 192 55 449 135 592
183 55 18 81 33 83 45 2 9 0 16 -5 16 -4 -1 -111 -37 -238 -80z m-628 -225
c-3 -3 -12 -4 -19 -1 -8 3 -5 6 6 6 11 1 17 -2 13 -5z m-40 -10 c-3 -3 -12 -4
-19 -1 -8 3 -5 6 6 6 11 1 17 -2 13 -5z m50 -120 c-3 -3 -12 -4 -19 -1 -8 3
-5 6 6 6 11 1 17 -2 13 -5z m153 -88 c0 -2 -7 -7 -16 -10 -8 -3 -12 -2 -9 4 6
10 25 14 25 6z m-42 -11 c-3 -3 -20 -10 -38 -15 -19 -5 -29 -6 -24 -1 12 12
74 27 62 16z m-43 -145 c-3 -5 -12 -10 -18 -10 -7 0 -6 4 3 10 19 12 23 12 15
0z m-25 -134 c0 -2 -7 -7 -16 -10 -8 -3 -12 -2 -9 4 6 10 25 14 25 6z m27
-512 c-3 -3 -12 -4 -19 -1 -8 3 -5 6 6 6 11 1 17 -2 13 -5z"/>
<path d="M1800 3016 l0 -534 228 -56 c1072 -264 2142 -379 3207 -346 905 28
1654 129 2528 342 l247 60 0 534 c0 425 -3 534 -13 534 -7 0 -109 -24 -227
-54 -507 -128 -1149 -240 -1700 -295 -1353 -137 -2788 -27 -4109 314 -74 19
-141 35 -148 35 -11 0 -13 -101 -13 -534z m1950 -211 l0 -135 60 0 60 0 0 135
0 135 35 0 35 0 0 -305 0 -305 -35 0 -35 0 0 135 0 135 -60 0 -60 0 0 -135 0
-135 -40 0 -40 0 0 305 1 305 40 0 39 0 0 -135z m726 119 c22 -10 40 -31 54
-60 20 -41 21 -56 18 -243 -3 -183 -5 -202 -24 -228 -50 -69 -158 -81 -215
-24 -40 40 -52 115 -47 300 3 129 7 163 23 196 34 68 117 94 191 59z m464
-230 c0 -150 4 -253 10 -265 15 -28 74 -26 94 3 13 19 16 62 16 265 l0 243 35
0 35 0 0 -250 c0 -273 -5 -303 -55 -336 -39 -25 -116 -24 -152 2 -55 41 -58
57 -61 332 l-4 252 41 0 41 0 0 -246z m726 230 c42 -20 74 -83 74 -147 0 -47
0 -47 -34 -47 -32 0 -34 2 -40 45 -9 70 -21 85 -66 85 -48 0 -70 -27 -70 -85
0 -55 21 -81 96 -116 80 -38 107 -74 112 -148 7 -113 -66 -191 -165 -176 -62
9 -97 45 -112 113 -18 87 -17 92 29 92 l40 0 0 -43 c0 -57 22 -87 64 -87 45 0
69 29 70 83 1 55 -13 72 -92 110 -84 40 -115 85 -115 165 0 76 39 145 93 165
30 11 83 7 116 -9z m614 -24 l0 -40 -85 0 -85 0 0 -95 0 -95 85 0 85 0 0 -35
0 -35 -85 0 -85 0 0 -95 0 -95 85 0 85 0 0 -40 0 -40 -125 0 -125 0 0 305 0
305 125 0 125 0 0 -40z"/>
<path d="M4360 2850 c-19 -19 -20 -33 -20 -213 0 -211 3 -222 55 -233 22 -4
38 0 55 14 l25 20 0 195 c0 178 -2 197 -19 216 -24 27 -70 27 -96 1z"/>
</g>
</svg>
